Normalized EMG Linear Envelopes
nRows=128
nColumns=4

endheader
time	 med_gas_r	  soleus_r	 tib_ant_r	
3	  0.007661	  0.017628	  0.004301	
3.0625	  0.008492	  0.024326	  0.004479	
3.125	  0.009332	  0.029126	  0.004598	
3.1875	  0.010069	  0.031228	  0.004631	
3.25	  0.010787	  0.031128	  0.004625	
3.3125	  0.011623	  0.029893	  0.004690	
3.375	  0.012314	  0.028381	  0.004894	
3.4375	  0.012502	  0.027054	  0.005199	
3.5	  0.012270	  0.026183	  0.005490	
3.5625	  0.011916	  0.025815	  0.005651	
3.625	  0.011623	  0.025722	  0.005590	
3.6875	  0.011542	  0.025596	  0.005287	
3.75	  0.011676	  0.025181	  0.004852	
3.8125	  0.011745	  0.024373	  0.004533	
3.875	  0.011541	  0.023421	  0.004661	
3.9375	  0.011145	  0.022849	  0.005560	
4	  0.010661	  0.023062	  0.007408	
4.0625	  0.010151	  0.024105	  0.009868	
4.125	  0.009844	  0.025680	  0.011756	
4.1875	  0.009945	  0.027139	  0.011726	
4.25	  0.010310	  0.027533	  0.009752	
4.3125	  0.010574	  0.026223	  0.007208	
4.375	  0.010492	  0.023491	  0.005307	
4.4375	  0.010074	  0.020224	  0.004249	
4.5	  0.009473	  0.017630	  0.003739	
4.5625	  0.008816	  0.017772	  0.003574	
4.625	  0.008440	  0.024014	  0.003918	
4.6875	  0.009590	  0.040835	  0.005514	
4.75	  0.014669	  0.072136	  0.009599	
4.8125	  0.026272	  0.116538	  0.017061	
4.875	  0.045906	  0.164034	  0.027510	
4.9375	  0.073582	  0.202685	  0.039569	
5	  0.107263	  0.231982	  0.051975	
5.0625	  0.140946	  0.265247	  0.064137	
5.125	  0.165113	  0.314691	  0.076035	
5.1875	  0.174659	  0.376190	  0.087377	
5.25	  0.175570	  0.430634	  0.096604	
5.3125	  0.177352	  0.460006	  0.101968	
5.375	  0.183319	  0.463926	  0.103951	
5.4375	  0.194693	  0.459909	  0.105217	
5.5	  0.215497	  0.466499	  0.108092	
5.5625	  0.247511	  0.490112	  0.113195	
5.625	  0.284633	  0.524210	  0.119691	
5.6875	  0.312937	  0.552686	  0.125514	
5.75	  0.320637	  0.560669	  0.128487	
5.8125	  0.312354	  0.547980	  0.128674	
5.875	  0.306283	  0.526715	  0.128465	
5.9375	  0.317208	  0.512116	  0.129788	
6	  0.348989	  0.519855	  0.132914	
6.0625	  0.395003	  0.555427	  0.138004	
6.125	  0.438511	  0.603224	  0.145804	
6.1875	  0.462325	  0.639644	  0.155624	
6.25	  0.463413	  0.655000	  0.163602	
6.3125	  0.453146	  0.657993	  0.165588	
6.375	  0.444886	  0.664604	  0.161963	
6.4375	  0.447482	  0.685114	  0.157093	
6.5	  0.467773	  0.718046	  0.154012	
6.5625	  0.508681	  0.750972	  0.151712	
6.625	  0.561277	  0.767293	  0.147870	
6.6875	  0.606292	  0.758882	  0.142802	
6.75	  0.629570	  0.734769	  0.139554	
6.8125	  0.632433	  0.715663	  0.140740	
6.875	  0.622983	  0.717602	  0.146803	
6.9375	  0.604777	  0.740294	  0.156793	
7	  0.581315	  0.770362	  0.168851	
7.0625	  0.562204	  0.791061	  0.179852	
7.125	  0.555734	  0.790155	  0.186755	
7.1875	  0.563212	  0.768315	  0.189451	
7.25	  0.583128	  0.740992	  0.190327	
7.3125	  0.608106	  0.723590	  0.190554	
7.375	  0.619754	  0.716282	  0.189167	
7.4375	  0.603673	  0.710575	  0.185015	
7.5	  0.566393	  0.705045	  0.177765	
7.5625	  0.525580	  0.705710	  0.168466	
7.625	  0.492080	  0.715100	  0.159499	
7.6875	  0.469443	  0.728897	  0.153245	
7.75	  0.461782	  0.743080	  0.151011	
7.8125	  0.474546	  0.759361	  0.152087	
7.875	  0.508627	  0.780992	  0.154195	
7.9375	  0.556048	  0.806129	  0.156204	
8	  0.600973	  0.828128	  0.158237	
8.0625	  0.625006	  0.840130	  0.158578	
8.125	  0.618179	  0.839533	  0.154803	
8.1875	  0.588123	  0.829759	  0.148750	
8.25	  0.554616	  0.816934	  0.146278	
8.3125	  0.536492	  0.807714	  0.151535	
8.375	  0.542680	  0.808414	  0.163370	
8.4375	  0.567583	  0.818837	  0.176106	
8.5	  0.593945	  0.830004	  0.182757	
8.5625	  0.603846	  0.832013	  0.179715	
8.625	  0.589707	  0.821728	  0.169718	
8.6875	  0.558515	  0.805030	  0.158864	
8.75	  0.526613	  0.794691	  0.150774	
8.8125	  0.509551	  0.802321	  0.145458	
8.875	  0.514176	  0.826491	  0.143165	
8.9375	  0.535575	  0.851106	  0.146581	
9	  0.562524	  0.862952	  0.157440	
9.0625	  0.588322	  0.866492	  0.172224	
9.125	  0.613729	  0.871485	  0.184182	
9.1875	  0.642528	  0.873072	  0.189508	
9.25	  0.677326	  0.858986	  0.189108	
9.3125	  0.710819	  0.830859	  0.185146	
9.375	  0.723249	  0.805083	  0.178857	
9.4375	  0.702286	  0.799391	  0.171775	
9.5	  0.658577	  0.821587	  0.166817	
9.5625	  0.611458	  0.857899	  0.166699	
9.625	  0.571556	  0.874808	  0.171333	
9.6875	  0.543312	  0.845877	  0.177462	
9.75	  0.533850	  0.778481	  0.180735	
9.8125	  0.550454	  0.709705	  0.178545	
9.875	  0.583102	  0.672794	  0.171835	
9.9375	  0.599925	  0.671103	  0.163567	
10	  0.580302	  0.685273	  0.155891	
10.0625	  0.540182	  0.692892	  0.150194	
10.125	  0.506371	  0.679768	  0.147543	
10.1875	  0.483951	  0.647184	  0.147362	
10.25	  0.460397	  0.610858	  0.147719	
10.3125	  0.423285	  0.583988	  0.145916	
10.375	  0.367246	  0.557623	  0.137598	
10.4375	  0.295536	  0.502958	  0.119140	
10.5	  0.218485	  0.402843	  0.092191	
10.5625	  0.147015	  0.276445	  0.063249	
10.625	  0.088549	  0.161649	  0.038673	
10.6875	  0.047396	  0.082542	  0.021499	
10.75	  0.023984	  0.041255	  0.012002	
10.8125	  0.014146	  0.027303	  0.008980	
10.875	  0.011634	  0.027003	  0.010211	
10.9375	  0.011165	  0.029779	  0.013081	
